<?xml version="1.0" encoding="utf-8"?>
<!-- Generator: Adobe Illustrator 25.3.1, SVG Export Plug-In . SVG Version: 6.00 Build 0)  -->
<svg version="1.1" id="Слой_1" xmlns:svgjs="http://svgjs.com/svgjs"
	 xmlns="http://www.w3.org/2000/svg" xmlns:xlink="http://www.w3.org/1999/xlink" x="0px" y="0px" viewBox="0 0 512 512"
	 style="enable-background:new 0 0 512 512;" xml:space="preserve">
<g>
	<path d="M405.3,0H106.7C47.8,0.1,0.1,47.8,0,106.7v298.7C0.1,464.2,47.8,511.9,106.7,512h298.7c58.9-0.1,106.6-47.8,106.7-106.7
		V106.7C511.9,47.8,464.2,0.1,405.3,0z M469.3,405.3c0,35.3-28.7,64-64,64H106.7c-35.3,0-64-28.7-64-64V106.7c0-35.3,28.7-64,64-64
		h298.7c35.3,0,64,28.7,64,64V405.3z"/>
</g>
<g>
	<g>
		<path d="M387.2,237.2H274.8V124.8c0-10.4-8.4-18.8-18.8-18.8c-10.4,0-18.7,8.4-18.7,18.8v112.5H124.8c-10.4,0-18.7,8.4-18.7,18.8
			c0,10.4,8.4,18.8,18.7,18.8h112.5v112.5c0,10.4,8.4,18.8,18.7,18.8c10.4,0,18.8-8.4,18.8-18.8V274.8h112.5
			c10.4,0,18.8-8.4,18.8-18.8C406,245.6,397.6,237.2,387.2,237.2z"/>
	</g>
</g>
</svg>
