<?xml version="1.0" encoding="utf-8"?>
<!-- Generator: Adobe Illustrator 25.3.1, SVG Export Plug-In . SVG Version: 6.00 Build 0)  -->
<svg version="1.1" id="Layer_1" xmlns="http://www.w3.org/2000/svg" xmlns:xlink="http://www.w3.org/1999/xlink" x="0px" y="0px"
	 viewBox="0 0 512 512" style="enable-background:new 0 0 512 512;" xml:space="preserve">
<g>
	<g>
		<path d="M297.5,284.6c13.4-24.4,18.4-53.6,11.7-82.9c-12.4-54.5-61.1-91.6-114.8-91.6c-8.6,0-17.4,1-26.2,3
			c-63.3,14.4-103,77.7-88.6,141c5,21.8,15.8,41.2,31.1,56.7l-8.2,11.6c13.7,5.2,25.8,13.9,35.1,25l8.6-12
			c23.2,10.5,49.1,13.2,74.4,7.4c18.9-4.3,35.7-13,49.6-24.7l65.9,54.1c6.7-13,16-24.3,27.4-33.3L297.5,284.6z M171.5,192.7
			c-6.7,1.5-12.4,5.6-16.1,11.4c-3.7,5.8-4.8,12.7-3.3,19.4c2.1,9.3-3.7,18.5-13,20.6c-9.3,2.1-18.5-3.7-20.6-13
			c-7.4-32.4,12.9-64.7,45.3-72.1c1.3-0.3,2.6-0.4,3.9-0.4c7.9,0,15,5.4,16.8,13.4C186.6,181.4,180.8,190.6,171.5,192.7z"/>
	</g>
</g>
<g>
	<g>
		<path d="M498.8,388.7c-9.3-40.6-45.4-68.1-85.4-68.1c-6.4,0-13,0.7-19.5,2.2v0c-47.1,10.7-76.7,57.8-65.9,104.9
			c5.2,22.8,19,42.2,38.8,54.7c19.8,12.4,43.3,16.4,66.1,11.2C480,482.8,509.5,435.8,498.8,388.7z"/>
	</g>
</g>
<g>
	<g>
		<path d="M153.7,370.4c-7.4-32.5-36.4-54.6-68.4-54.6c-5.2,0-10.4,0.6-15.6,1.8c-37.7,8.6-61.4,46.3-52.8,84.1s46.3,61.4,84.1,52.8
			c18.3-4.2,33.8-15.2,43.8-31.1C154.6,407.5,157.8,388.7,153.7,370.4z"/>
	</g>
</g>
<g>
	<g id="Artwork_73_">
		<g id="Layer_5_73_">
			<g>
				<path d="M273.1,55.2c-2.3-4.1-7.5-5.5-11.6-3.2l-17.3,9.9c-4.1,2.3-5.5,7.5-3.2,11.6c1.6,2.8,4.4,4.3,7.4,4.3
					c1.4,0,2.9-0.4,4.2-1.1l17.3-9.9C274,64.4,275.4,59.2,273.1,55.2z"/>
				<path d="M273.1,110c2.3-4.1,0.9-9.3-3.2-11.6l-17.3-9.9c-4.1-2.3-9.3-0.9-11.6,3.2c-2.3,4.1-0.9,9.3,3.2,11.6l17.3,9.9
					c1.3,0.8,2.8,1.1,4.2,1.1C268.7,114.3,271.5,112.8,273.1,110z"/>
				<path d="M29,33.5c12.5-11.3,30.7-17.3,52.7-17.3c26.8,0,52.9,14.9,66.1,23.7c2.4,1.6,17.9,12.2,26.8,23c0.4,0.4,0.5,0.7,1.1,0.7
					c0.5,0,0.8-0.2,1.2-0.5c6.6-5.4,17.3-8.8,29.3-8.8c20.1,0,19.3,9.7,19.3,21.7c0,11.6,0.7,21-17.3,21.7c-0.3,0-0.9,0.1-0.9,1.5
					l0.1,12.8l-27.7,0l0.4-18.9c0-1.9-0.9-2.5-1.4-2.8c-0.6-0.4-1.2-0.8-1.7-1.3c-0.4-0.3-0.6-0.3-1.1-0.2c-0.4,0.1-0.8,0.4-1.2,0.9
					c-8.5,10.8-23.2,20.8-27.1,23.3c-13,8.5-38.8,22.8-66,22.8c-22,0-40.2-6-52.7-17.3C17.2,107.9,11,93.2,11,76S17.2,44.1,29,33.5z
					"/>
			</g>
		</g>
	</g>
</g>
</svg>
